<svg width="516" height="343" viewBox="0 0 516 343" fill="none" xmlns="http://www.w3.org/2000/svg">
<mask id="path-1-inside-1_8082_29384" fill="white">
<path fill-rule="evenodd" clip-rule="evenodd" d="M443.327 140.292C473.303 192.212 440.437 267.306 369.919 308.019C299.402 348.733 217.935 339.648 187.96 287.729C187.146 286.319 186.378 284.892 185.656 283.449L185.531 283.521L166.089 249.846L176.879 243.617C177.584 199.138 209.155 150.146 261.367 120.001C313.579 89.8569 371.793 87.0118 410.665 108.64L421.456 102.41L440.898 136.085L440.772 136.157C441.661 137.504 442.513 138.882 443.327 140.292Z"/>
</mask>
<path fill-rule="evenodd" clip-rule="evenodd" d="M443.327 140.292C473.303 192.212 440.437 267.306 369.919 308.019C299.402 348.733 217.935 339.648 187.96 287.729C187.146 286.319 186.378 284.892 185.656 283.449L185.531 283.521L166.089 249.846L176.879 243.617C177.584 199.138 209.155 150.146 261.367 120.001C313.579 89.8569 371.793 87.0118 410.665 108.64L421.456 102.41L440.898 136.085L440.772 136.157C441.661 137.504 442.513 138.882 443.327 140.292Z" fill="#90C008"/>
<path d="M443.327 140.292L444.877 139.397V139.397L443.327 140.292ZM187.96 287.729L189.51 286.834H189.51L187.96 287.729ZM185.656 283.449L187.257 282.648L186.407 280.949L184.761 281.899L185.656 283.449ZM185.531 283.521L183.981 284.416L184.876 285.966L186.426 285.071L185.531 283.521ZM166.089 249.846L165.194 248.296L163.644 249.191L164.539 250.741L166.089 249.846ZM176.879 243.617L177.774 245.167L178.652 244.66L178.669 243.645L176.879 243.617ZM261.367 120.001L262.262 121.552L261.367 120.001ZM410.665 108.64L409.795 110.204L410.682 110.697L411.56 110.19L410.665 108.64ZM421.456 102.41L423.006 101.515L422.111 99.9647L420.561 100.86L421.456 102.41ZM440.898 136.085L441.793 137.635L443.344 136.74L442.449 135.19L440.898 136.085ZM440.772 136.157L439.877 134.607L438.232 135.557L439.278 137.143L440.772 136.157ZM370.814 309.569C406.37 289.042 432.496 259.813 445.948 229.076C459.4 198.339 460.217 165.967 444.877 139.397L441.777 141.187C456.413 166.537 455.785 197.671 442.668 227.64C429.553 257.608 403.987 286.283 369.024 306.469L370.814 309.569ZM186.409 288.624C201.749 315.193 230.193 330.672 263.538 334.39C296.883 338.109 335.259 330.097 370.814 309.569L369.024 306.469C334.062 326.655 296.446 334.458 263.935 330.832C231.423 327.207 204.146 312.184 189.51 286.834L186.409 288.624ZM184.055 284.25C184.793 285.724 185.578 287.183 186.409 288.624L189.51 286.834C188.714 285.455 187.963 284.059 187.257 282.648L184.055 284.25ZM184.761 281.899L184.636 281.971L186.426 285.071L186.551 284.999L184.761 281.899ZM187.081 282.626L167.639 248.951L164.539 250.741L183.981 284.416L187.081 282.626ZM166.984 251.396L177.774 245.167L175.984 242.067L165.194 248.296L166.984 251.396ZM260.472 118.451C207.866 148.823 175.807 198.324 175.089 243.588L178.669 243.645C179.362 199.953 210.444 151.469 262.262 121.552L260.472 118.451ZM411.536 107.076C371.976 85.0654 313.078 88.0793 260.472 118.451L262.262 121.552C314.08 91.6345 371.61 88.9582 409.795 110.204L411.536 107.076ZM411.56 110.19L422.351 103.96L420.561 100.86L409.77 107.09L411.56 110.19ZM419.906 103.305L439.348 136.98L442.449 135.19L423.006 101.515L419.906 103.305ZM440.003 134.534L439.877 134.607L441.667 137.708L441.793 137.635L440.003 134.534ZM444.877 139.397C444.045 137.956 443.175 136.548 442.266 135.171L439.278 137.143C440.147 138.46 440.981 139.808 441.777 141.187L444.877 139.397Z" fill="black" mask="url(#path-1-inside-1_8082_29384)"/>
<mask id="path-3-inside-2_8082_29384" fill="white">
<path fill-rule="evenodd" clip-rule="evenodd" d="M260.384 120.573C208.76 150.762 177.581 199.417 176.879 243.615L166.089 249.845L185.531 283.52L185.656 283.448C186.378 284.891 187.146 286.318 187.96 287.728C217.796 339.406 298.643 348.646 368.933 308.585L260.384 120.573Z"/>
</mask>
<path fill-rule="evenodd" clip-rule="evenodd" d="M260.384 120.573C208.76 150.762 177.581 199.417 176.879 243.615L166.089 249.845L185.531 283.52L185.656 283.448C186.378 284.891 187.146 286.318 187.96 287.728C217.796 339.406 298.643 348.646 368.933 308.585L260.384 120.573Z" fill="#719806"/>
<path d="M176.879 243.615L177.774 245.165L178.653 244.658L178.669 243.644L176.879 243.615ZM260.384 120.573L261.934 119.678L261.034 118.119L259.48 119.027L260.384 120.573ZM166.089 249.845L165.194 248.295L163.644 249.19L164.539 250.74L166.089 249.845ZM185.531 283.52L183.981 284.415L184.876 285.965L186.426 285.07L185.531 283.52ZM185.656 283.448L187.257 282.647L186.407 280.947L184.761 281.897L185.656 283.448ZM187.96 287.728L189.51 286.833H189.51L187.96 287.728ZM368.933 308.585L369.819 310.14L371.383 309.249L370.483 307.69L368.933 308.585ZM178.669 243.644C179.358 200.227 210.054 152.079 261.287 122.118L259.48 119.027C207.466 149.445 175.803 198.607 175.089 243.587L178.669 243.644ZM166.984 251.395L177.774 245.165L175.984 242.065L165.194 248.295L166.984 251.395ZM187.082 282.625L167.639 248.95L164.539 250.74L183.981 284.415L187.082 282.625ZM184.761 281.897L184.636 281.969L186.426 285.07L186.551 284.998L184.761 281.897ZM189.51 286.833C188.714 285.454 187.963 284.058 187.257 282.647L184.055 284.248C184.793 285.723 185.578 287.182 186.41 288.623L189.51 286.833ZM368.046 307.03C333.198 326.892 295.792 334.495 263.481 330.78C231.169 327.066 204.078 312.065 189.51 286.833L186.41 288.623C201.678 315.069 229.929 330.527 263.072 334.337C296.216 338.147 334.379 330.339 369.819 310.14L368.046 307.03ZM370.483 307.69L261.934 119.678L258.834 121.468L367.383 309.48L370.483 307.69Z" fill="black" mask="url(#path-3-inside-2_8082_29384)"/>
<path d="M419.868 101.456C434.68 127.111 434.005 158.555 420.805 188.716C407.605 218.876 381.899 247.69 346.788 267.961C311.678 288.232 273.872 296.087 241.152 292.439C208.432 288.79 180.863 273.653 166.051 247.998C151.239 222.343 151.914 190.899 165.115 160.738C178.315 130.578 204.02 101.765 239.131 81.4934C274.242 61.2222 312.048 53.3671 344.768 57.0157C377.488 60.6644 405.056 75.8015 419.868 101.456Z" fill="#D5FB6B" stroke="black" stroke-width="1.78998"/>
<path d="M402.599 103.944C414.713 124.926 413.359 151.148 401.194 176.662C389.032 202.172 366.093 226.883 335.232 244.701C304.372 262.518 271.502 270.028 243.328 267.806C215.15 265.584 191.764 253.645 179.651 232.664C167.537 211.682 168.89 185.461 181.055 159.947C193.218 134.437 216.157 109.725 247.017 91.9078C277.878 74.0907 310.748 66.5808 338.922 68.8023C367.1 71.0242 390.486 82.9629 402.599 103.944Z" fill="#A2D611" stroke="black" stroke-width="1.78998"/>
<path d="M409.075 115.169C421.189 136.15 419.835 162.372 407.67 187.886C395.507 213.396 372.568 238.108 341.708 255.925C310.848 273.742 277.977 281.252 249.804 279.03C221.625 276.808 198.24 264.87 186.126 243.888C174.013 222.907 175.366 196.685 187.531 171.171C199.694 145.661 222.633 120.949 253.493 103.132C284.353 85.315 317.224 77.8052 345.397 80.0267C373.576 82.2486 396.961 94.1872 409.075 115.169Z" fill="#BFFF0B" stroke="black" stroke-width="1.78998"/>
<path fill-rule="evenodd" clip-rule="evenodd" d="M270.593 200.782C270.584 200.426 270.433 200.089 270.175 199.845C269.916 199.6 269.571 199.468 269.215 199.479L236.041 200.426C235.506 200.442 235.031 200.774 234.834 201.271C234.636 201.768 234.753 202.336 235.131 202.714L269.253 236.836C269.641 237.224 270.227 237.336 270.731 237.12C271.235 236.903 271.556 236.401 271.541 235.852L270.593 200.782Z" fill="#405701"/>
<path fill-rule="evenodd" clip-rule="evenodd" d="M302.117 110.543C302.58 110.793 302.854 111.293 302.817 111.818L301.867 125.027L310.275 120.047C310.719 119.784 311.276 119.8 311.705 120.087C312.134 120.375 312.359 120.884 312.284 121.395L310.281 135.033L320.846 130.399C321.312 130.195 321.855 130.272 322.245 130.599C322.636 130.927 322.807 131.447 322.687 131.943L319.954 143.215L330.451 139.829C330.934 139.673 331.464 139.804 331.819 140.167C332.175 140.529 332.295 141.061 332.13 141.541L328.584 151.842L340.048 149.275C340.546 149.164 341.064 149.345 341.384 149.742C341.705 150.14 341.771 150.685 341.556 151.148L336.753 161.494L350.593 159.68C351.107 159.613 351.614 159.848 351.894 160.284C352.175 160.72 352.179 161.279 351.904 161.719L346.784 169.927L360.167 169.15C360.696 169.119 361.194 169.403 361.436 169.873C361.679 170.344 361.622 170.914 361.291 171.327L355.505 178.54L369.732 178.626C370.275 178.629 370.763 178.96 370.967 179.465C371.17 179.969 371.049 180.546 370.66 180.926L291.99 257.7C291.604 258.077 291.03 258.185 290.533 257.976C290.036 257.767 289.713 257.28 289.713 256.741L289.713 180.822L213.323 180.359C212.782 180.356 212.297 180.028 212.091 179.528C211.886 179.027 212.001 178.453 212.383 178.071L290.106 100.348C290.489 99.9649 291.065 99.8502 291.566 100.058C292.067 100.265 292.394 100.754 292.394 101.296L292.394 116.972L300.666 110.657C301.085 110.337 301.653 110.292 302.117 110.543ZM289.713 119.019L289.713 104.532L228.474 165.772L289.713 119.019ZM255.174 177.932L289.713 178.141L289.713 175.926L255.174 177.932ZM292.394 175.77V178.157L295.358 178.175L295.544 175.587L292.394 175.77ZM295.738 172.891L292.394 173.085L292.394 170.01L295.979 169.541L295.738 172.891ZM298.243 175.431L298.045 178.191L301.231 178.211L301.668 175.232L298.243 175.431ZM302.066 172.523L298.437 172.734L298.692 169.185L302.632 168.669L302.066 172.523ZM304.401 175.073L303.938 178.227L308.701 178.256L309.545 174.774L304.401 175.073ZM310.205 172.051L304.799 172.365L305.395 168.307L311.3 167.533L310.205 172.051ZM312.343 174.612L311.455 178.273L316.639 178.304L318.023 174.282L312.343 174.612ZM318.966 171.542L313.003 171.888L314.149 167.16L320.774 166.292L318.966 171.542ZM320.916 174.114L319.468 178.321L325.966 178.361L328.132 173.695L320.916 174.114ZM329.414 170.935L321.86 171.374L323.743 165.902L332.269 164.785L329.414 170.935ZM331.17 173.519L328.914 178.378L338.317 178.435L341.768 172.903L331.17 173.519ZM343.506 170.117L332.451 170.759L335.416 164.373L348.128 162.707L343.506 170.117ZM345.046 172.713L341.465 178.455L352.084 178.519L357.313 172.001L345.046 172.713ZM349.944 181.187L339.799 181.125L304.163 238.256L349.944 181.187ZM301.433 237.567L336.651 181.106L327.672 181.052L301.433 237.567ZM324.725 181.034L318.547 180.997L300.776 232.616L324.725 181.034ZM299.091 229.276L315.717 180.979L310.806 180.95L299.091 229.276ZM308.052 180.933L303.545 180.906L296.609 228.133L308.052 180.933ZM294.986 220.738L300.838 180.889L297.852 180.871L294.986 220.738ZM295.165 180.855L292.394 180.838V219.404L295.165 180.855ZM305.887 240.391L366.451 181.287L353.364 181.208L305.887 240.391ZM333.606 161.906L337.98 152.486L327.559 154.819L324.718 163.071L333.606 161.906ZM321.749 163.46L324.487 155.506L316.543 157.285L314.826 164.367L321.749 163.46ZM311.977 164.74L313.626 157.938L306.69 159.491L305.8 165.55L311.977 164.74ZM303.037 165.912L303.888 160.118L299.27 161.152L298.888 166.456L303.037 165.912ZM296.175 166.811L296.538 161.764L292.394 162.691V167.307L296.175 166.811ZM289.713 167.658L289.713 163.292L242.686 173.82L289.713 167.658ZM241.518 171.334L289.713 160.544L289.713 155.788L241.518 171.334ZM292.394 154.923L292.394 159.944L296.739 158.971L297.14 153.392L292.394 154.923ZM297.347 150.508L292.394 152.106L292.394 145.805L297.857 143.409L297.347 150.508ZM299.891 152.504L299.47 158.36L304.305 157.277L305.26 150.772L299.891 152.504ZM305.695 147.815L300.099 149.62L300.633 142.192L306.926 139.432L305.695 147.815ZM308.105 149.855L307.107 156.65L314.331 155.033L316.221 147.237L308.105 149.855ZM316.961 144.181L308.539 146.898L309.822 138.162L319.444 133.942L316.961 144.181ZM319.213 146.271L317.247 154.38L325.512 152.53L328.722 143.204L319.213 146.271ZM307.385 136.303L309.223 123.786L301.633 128.281L300.85 139.169L307.385 136.303ZM298.075 140.386L298.826 129.944L292.394 133.753L292.394 142.878L298.075 140.386ZM289.713 144.054L289.713 135.34L232.998 168.929L289.713 144.054ZM250.259 175.532L289.713 173.241V170.362L250.259 175.532ZM238.088 169.624L289.713 152.971V146.981L238.088 169.624ZM232.281 166.238L289.713 122.392L289.713 132.225L232.281 166.238ZM292.394 130.637L292.394 120.345L299.929 114.592L299.06 126.689L292.394 130.637Z" fill="#405701"/>
<g opacity="0.8">
<mask id="path-10-inside-3_8082_29384" fill="white">
<path fill-rule="evenodd" clip-rule="evenodd" d="M9.60617 47.5295C0.491562 63.3164 10.4849 86.1499 31.9269 98.5295C53.3689 110.909 78.1399 108.147 87.2545 92.3598C87.502 91.9311 87.7354 91.4973 87.9549 91.0586L87.993 91.0806L93.9047 80.8412L90.6238 78.947C90.4094 65.4226 80.8097 50.5257 64.9338 41.3598C49.0579 32.1938 31.357 31.3287 19.5373 37.9052L16.2563 36.0109L10.3446 46.2502L10.3829 46.2723C10.1127 46.6817 9.85365 47.1008 9.60617 47.5295Z"/>
</mask>
<path fill-rule="evenodd" clip-rule="evenodd" d="M9.60617 47.5295C0.491562 63.3164 10.4849 86.1499 31.9269 98.5295C53.3689 110.909 78.1399 108.147 87.2545 92.3598C87.502 91.9311 87.7354 91.4973 87.9549 91.0586L87.993 91.0806L93.9047 80.8412L90.6238 78.947C90.4094 65.4226 80.8097 50.5257 64.9338 41.3598C49.0579 32.1938 31.357 31.3287 19.5373 37.9052L16.2563 36.0109L10.3446 46.2502L10.3829 46.2723C10.1127 46.6817 9.85365 47.1008 9.60617 47.5295Z" fill="#90C008"/>
<path d="M31.9269 98.5295L31.6548 99.0008L31.9269 98.5295ZM9.60617 47.5295L10.0775 47.8016V47.8016L9.60617 47.5295ZM87.2545 92.3598L87.7259 92.6319L87.2545 92.3598ZM87.9549 91.0586L87.4681 90.8151L87.7266 90.2983L88.227 90.5872L87.9549 91.0586ZM87.993 91.0806L88.4643 91.3527L88.1922 91.8241L87.7208 91.5519L87.993 91.0806ZM93.9047 80.8412L94.1768 80.3699L94.6482 80.642L94.376 81.1133L93.9047 80.8412ZM90.6238 78.947L90.3517 79.4184L90.0845 79.2641L90.0796 78.9557L90.6238 78.947ZM64.9338 41.3598L64.6617 41.8311L64.9338 41.3598ZM19.5373 37.9052L19.8019 38.3808L19.5323 38.5308L19.2652 38.3765L19.5373 37.9052ZM16.2563 36.0109L15.7849 35.7388L16.0571 35.2674L16.5284 35.5395L16.2563 36.0109ZM10.3446 46.2502L10.0724 46.7216L9.60111 46.4494L9.87325 45.9781L10.3446 46.2502ZM10.3829 46.2723L10.655 45.801L11.1554 46.0899L10.8371 46.5721L10.3829 46.2723ZM31.6548 99.0008C20.8436 92.759 12.8996 83.8716 8.80919 74.5255C4.71888 65.1796 4.47047 55.3362 9.13482 47.2573L10.0775 47.8016C5.62727 55.5097 5.81821 64.9765 9.80641 74.089C13.7945 83.2013 21.5681 91.9204 32.199 98.0581L31.6548 99.0008ZM87.7259 92.6319C83.0615 100.711 74.4127 105.417 64.2738 106.548C54.1346 107.679 42.4659 105.243 31.6548 99.0008L32.199 98.0581C42.8299 104.196 54.2677 106.568 64.1532 105.466C74.0389 104.364 82.3329 99.7957 86.7832 92.0876L87.7259 92.6319ZM88.4417 91.3021C88.2173 91.7505 87.9788 92.1939 87.7259 92.6319L86.7832 92.0876C87.0253 91.6684 87.2535 91.2441 87.4681 90.8151L88.4417 91.3021ZM88.227 90.5872L88.2651 90.6092L87.7208 91.5519L87.6827 91.5299L88.227 90.5872ZM87.5216 90.8084L93.4333 80.5691L94.376 81.1133L88.4643 91.3527L87.5216 90.8084ZM93.6325 81.3126L90.3517 79.4184L90.896 78.4757L94.1768 80.3699L93.6325 81.3126ZM65.206 40.8884C81.2016 50.1235 90.9498 65.175 91.168 78.9384L90.0796 78.9557C89.8689 65.6703 80.4178 50.9279 64.6617 41.8311L65.206 40.8884ZM19.2727 37.4296C31.3013 30.7369 49.2103 31.6533 65.206 40.8884L64.6617 41.8311C48.9056 32.7343 31.4128 31.9206 19.8019 38.3808L19.2727 37.4296ZM19.2652 38.3765L15.9842 36.4822L16.5284 35.5395L19.8094 37.4338L19.2652 38.3765ZM16.7276 36.283L10.8159 46.5224L9.87325 45.9781L15.7849 35.7388L16.7276 36.283ZM10.6167 45.7789L10.655 45.801L10.1107 46.7437L10.0724 46.7216L10.6167 45.7789ZM9.13482 47.2573C9.38773 46.8193 9.65246 46.391 9.9286 45.9725L10.8371 46.5721C10.5729 46.9725 10.3196 47.3823 10.0775 47.8016L9.13482 47.2573Z" fill="black" mask="url(#path-10-inside-3_8082_29384)"/>
<mask id="path-12-inside-4_8082_29384" fill="white">
<path fill-rule="evenodd" clip-rule="evenodd" d="M65.2331 41.5332C80.9301 50.7128 90.4104 65.507 90.6237 78.9461L93.9046 80.8403L87.9929 91.0797L87.9549 91.0578C87.7354 91.4966 87.502 91.9305 87.2544 92.3593C78.1824 108.073 53.5996 110.882 32.2271 98.7012L65.2331 41.5332Z"/>
</mask>
<path fill-rule="evenodd" clip-rule="evenodd" d="M65.2331 41.5332C80.9301 50.7128 90.4104 65.507 90.6237 78.9461L93.9046 80.8403L87.9929 91.0797L87.9549 91.0578C87.7354 91.4966 87.502 91.9305 87.2544 92.3593C78.1824 108.073 53.5996 110.882 32.2271 98.7012L65.2331 41.5332Z" fill="#719806"/>
<path d="M90.6237 78.9461L90.3516 79.4175L90.0844 79.2632L90.0795 78.9548L90.6237 78.9461ZM65.2331 41.5332L64.7617 41.2611L65.0354 40.7871L65.5078 41.0634L65.2331 41.5332ZM93.9046 80.8403L94.1767 80.369L94.6481 80.6411L94.3759 81.1125L93.9046 80.8403ZM87.9929 91.0797L88.4643 91.3518L88.1921 91.8232L87.7207 91.551L87.9929 91.0797ZM87.9549 91.0578L87.4682 90.8143L87.7267 90.2975L88.2271 90.5864L87.9549 91.0578ZM87.2544 92.3593L87.7258 92.6314H87.7258L87.2544 92.3593ZM32.2271 98.7012L31.9576 99.1741L31.4821 98.9031L31.7557 98.4291L32.2271 98.7012ZM90.0795 78.9548C89.87 65.7533 80.5366 51.1132 64.9583 42.003L65.5078 41.0634C81.3236 50.3124 90.9509 65.2608 91.1679 78.9375L90.0795 78.9548ZM93.6325 81.3117L90.3516 79.4175L90.8959 78.4748L94.1767 80.369L93.6325 81.3117ZM87.5215 90.8075L93.4332 80.5682L94.3759 81.1125L88.4643 91.3518L87.5215 90.8075ZM88.2271 90.5864L88.2651 90.6083L87.7207 91.551L87.6828 91.5291L88.2271 90.5864ZM86.7831 92.0871C87.0252 91.6678 87.2535 91.2434 87.4682 90.8143L88.4417 91.3013C88.2174 91.7497 87.9788 92.1932 87.7258 92.6314L86.7831 92.0871ZM32.4966 98.2284C43.0929 104.268 54.4665 106.579 64.2913 105.45C74.1162 104.321 82.3536 99.7593 86.7831 92.0871L87.7258 92.6314C83.0832 100.673 74.4932 105.373 64.4156 106.531C54.3378 107.69 42.7338 105.316 31.9576 99.1741L32.4966 98.2284ZM31.7557 98.4291L64.7617 41.2611L65.7044 41.8053L32.6984 98.9734L31.7557 98.4291Z" fill="black" mask="url(#path-12-inside-4_8082_29384)"/>
<path d="M16.7391 35.7212C12.2354 43.5219 12.4407 53.0829 16.4544 62.2538C20.4681 71.4245 28.2843 80.1857 38.9602 86.3494C49.6362 92.5132 61.1317 94.9017 71.0806 93.7922C81.0297 92.6828 89.4124 88.0801 93.9162 80.2793C98.4199 72.4786 98.2146 62.9176 94.2009 53.7467C90.1872 44.576 82.371 35.8148 71.695 29.6511C61.0191 23.4873 49.5236 21.0988 39.5747 22.2083C29.6256 23.3177 21.2429 27.9204 16.7391 35.7212Z" fill="#D5FB6B" stroke="black" stroke-width="0.544272"/>
<path d="M21.9901 36.4776C18.3067 42.8574 18.7183 50.8305 22.4172 58.5884C26.1155 66.3451 33.0905 73.859 42.474 79.2766C51.8575 84.6942 61.8523 86.9777 70.4189 86.3022C78.987 85.6266 86.0977 81.9965 89.781 75.6167C93.4644 69.2369 93.0528 61.2638 89.3539 53.5059C85.6556 45.7492 78.6806 38.2352 69.2971 32.8176C59.9136 27.4001 49.9188 25.1166 41.3522 25.7921C32.7841 26.4677 25.6734 30.0978 21.9901 36.4776Z" fill="#A2D611" stroke="black" stroke-width="0.544272"/>
<path d="M20.021 39.8902C16.3377 46.2699 16.7492 54.243 20.4482 62.001C24.1465 69.7576 31.1214 77.2716 40.505 82.6892C49.8885 88.1068 59.8833 90.3903 68.4499 89.7148C77.0179 89.0392 84.1286 85.4091 87.812 79.0293C91.4954 72.6495 91.0838 64.6764 87.3849 56.9185C83.6865 49.1618 76.7116 41.6478 67.3281 36.2302C57.9445 30.8127 47.9498 28.5292 39.3832 29.2047C30.8151 29.8803 23.7044 33.5104 20.021 39.8902Z" fill="#BFFF0B" stroke="black" stroke-width="0.544272"/>
<path fill-rule="evenodd" clip-rule="evenodd" d="M62.1285 65.9224C62.1314 65.8142 62.1772 65.7116 62.2558 65.6373C62.3344 65.5629 62.4394 65.5229 62.5476 65.526L72.6347 65.8142C72.7973 65.8188 72.9417 65.9198 73.0018 66.071C73.0619 66.2222 73.0263 66.3947 72.9112 66.5098L62.5359 76.8851C62.4179 77.0031 62.2399 77.0373 62.0867 76.9713C61.9334 76.9054 61.8358 76.7527 61.8403 76.5859L62.1285 65.9224Z" fill="#405701"/>
<path fill-rule="evenodd" clip-rule="evenodd" d="M52.5433 38.4837C52.4023 38.5599 52.319 38.7117 52.3305 38.8716L52.6193 42.8878L50.0627 41.3737C49.9275 41.2936 49.7584 41.2984 49.6279 41.3859C49.4975 41.4735 49.4289 41.6282 49.4518 41.7836L50.0607 45.9302L46.8485 44.5214C46.7066 44.4591 46.5417 44.4827 46.423 44.5823C46.3042 44.6818 46.2522 44.8401 46.2887 44.9906L47.1196 48.4184L43.9279 47.3888C43.781 47.3414 43.6199 47.381 43.5118 47.4913C43.4037 47.6015 43.3671 47.7633 43.4174 47.9093L44.4956 51.0414L41.0098 50.261C40.8583 50.227 40.7007 50.2821 40.6033 50.403C40.506 50.5238 40.4857 50.6895 40.551 50.8303L42.0116 53.9762L37.8034 53.4248C37.6471 53.4043 37.493 53.4758 37.4077 53.6084C37.3224 53.741 37.3212 53.9109 37.4047 54.0446L38.9614 56.5403L34.8921 56.3041C34.7313 56.2947 34.5801 56.3809 34.5063 56.5241C34.4324 56.6672 34.4498 56.8404 34.5505 56.966L36.3099 59.1592L31.984 59.1854C31.8187 59.1864 31.6703 59.2872 31.6085 59.4405C31.5466 59.5938 31.5835 59.7692 31.7018 59.8847L55.6226 83.2291C55.74 83.3436 55.9145 83.3767 56.0656 83.313C56.2166 83.2494 56.3149 83.1014 56.3149 82.9374L56.3149 59.8531L79.5424 59.7124C79.7068 59.7114 79.8545 59.6117 79.917 59.4596C79.9794 59.3075 79.9444 59.1328 79.8282 59.0166L56.1955 35.3839C56.0789 35.2674 55.9036 35.2325 55.7513 35.2956C55.599 35.3587 55.4997 35.5073 55.4997 35.6721L55.4997 40.4387L52.9844 38.5184C52.857 38.4211 52.6844 38.4076 52.5433 38.4837ZM56.3149 41.061L56.3149 36.6561L74.9357 55.2769L56.3149 41.061ZM66.8171 58.9743L56.3149 59.038L56.3149 58.3645L66.8171 58.9743ZM55.4997 58.3172V59.0429L54.5984 59.0484L54.5418 58.2615L55.4997 58.3172ZM54.4829 57.4416L55.4997 57.5006L55.4997 56.5657L54.4097 56.4229L54.4829 57.4416ZM53.7211 58.2139L53.7815 59.0533L52.8126 59.0592L52.6796 58.1534L53.7211 58.2139ZM52.5587 57.3299L53.6622 57.3939L53.5846 56.3148L52.3866 56.1578L52.5587 57.3299ZM51.8486 58.1052L51.9895 59.0642L50.5413 59.0729L50.2847 58.0144L51.8486 58.1052ZM50.0839 57.1862L51.7277 57.2816L51.5465 56.0477L49.7509 55.8125L50.0839 57.1862ZM49.434 57.965L49.7038 59.078L48.1277 59.0876L47.7067 57.8647L49.434 57.965ZM47.4199 57.0315L49.2332 57.1368L48.8846 55.6989L46.8703 55.435L47.4199 57.0315ZM46.827 57.8136L47.2674 59.0928L45.2915 59.1048L44.6329 57.6862L46.827 57.8136ZM44.2433 56.847L46.5402 56.9804L45.9675 55.3167L43.375 54.977L44.2433 56.847ZM43.7092 57.6326L44.3953 59.1102L41.5359 59.1275L40.4867 57.4454L43.7092 57.6326ZM39.9582 56.5982L43.3196 56.7934L42.4181 54.8516L38.5528 54.3451L39.9582 56.5982ZM39.4899 57.3876L40.5788 59.1333L37.3499 59.1529L35.76 57.171L39.4899 57.3876ZM38.0007 59.9641L41.0854 59.9454L51.9211 77.317L38.0007 59.9641ZM52.7512 77.1075L42.0425 59.9396L44.7727 59.9231L52.7512 77.1075ZM45.6689 59.9177L47.5475 59.9063L52.9509 75.602L45.6689 59.9177ZM53.4634 74.5865L48.4078 59.9011L49.9011 59.892L53.4634 74.5865ZM50.7387 59.8869L52.1091 59.8786L54.2179 74.2388L50.7387 59.8869ZM54.7116 71.9901L52.9323 59.8736L53.8401 59.8681L54.7116 71.9901ZM54.657 59.8632L55.4997 59.8581L55.4997 71.5847L54.657 59.8632ZM51.3968 77.9661L32.9815 59.9945L36.9607 59.9704L51.3968 77.9661ZM42.9686 54.1016L41.6386 51.2371L44.8072 51.9465L45.6711 54.4557L42.9686 54.1016ZM46.5739 54.574L45.7413 52.1556L48.1567 52.6964L48.6788 54.8498L46.5739 54.574ZM49.5451 54.9634L49.0436 52.8949L51.1528 53.3671L51.4234 55.2095L49.5451 54.9634ZM52.2635 55.3196L52.0048 53.5579L53.409 53.8722L53.5249 55.4849L52.2635 55.3196ZM54.35 55.593L54.2396 54.0582L55.4997 54.3403V55.7436L54.35 55.593ZM56.3149 55.8504L56.3149 54.5228L70.614 57.7241L56.3149 55.8504ZM70.9692 56.9683L56.3149 53.6875L56.3149 52.2411L70.9692 56.9683ZM55.4997 51.9781L55.4997 53.505L54.1786 53.2092L54.0566 51.5126L55.4997 51.9781ZM53.9936 50.6358L55.4997 51.1216V49.2059L53.8384 48.4772L53.9936 50.6358ZM53.22 51.2427L53.348 53.0232L51.8779 52.6941L51.5874 50.7161L53.22 51.2427ZM51.4554 49.817L53.1569 50.3659L52.9945 48.1071L51.0811 47.2679L51.4554 49.817ZM50.7226 50.4371L51.026 52.5034L48.8295 52.0116L48.2548 49.6411L50.7226 50.4371ZM48.0296 48.7119L50.5905 49.538L50.2004 46.8816L47.2748 45.5985L48.0296 48.7119ZM47.3449 49.3475L47.9426 51.8131L45.4297 51.2505L44.4535 48.4148L47.3449 49.3475ZM50.9413 46.3165L50.3824 42.5104L52.6904 43.8773L52.9284 47.188L50.9413 46.3165ZM53.7723 47.5581L53.544 44.3828L55.4997 45.5411L55.4997 48.3158L53.7723 47.5581ZM56.3149 48.6733L56.3149 46.0238L73.5599 56.2369L56.3149 48.6733ZM68.3116 58.2445L56.3149 57.548V56.6726L68.3116 58.2445ZM72.0123 56.4483L56.3149 51.3846L56.3149 49.5634L72.0123 56.4483ZM73.7781 55.4187L56.3149 42.0866L56.3149 45.0764L73.7781 55.4187ZM55.4997 44.5937L55.4997 41.4643L53.2084 39.715L53.4729 43.3933L55.4997 44.5937Z" fill="#405701"/>
</g>
<g opacity="0.8" filter="url(#filter0_f_8082_29384)">
<mask id="path-19-inside-5_8082_29384" fill="white">
<path fill-rule="evenodd" clip-rule="evenodd" d="M102.088 215.545C105.833 229.673 93.3136 245.25 74.1245 250.337C54.9354 255.424 36.3434 248.095 32.598 233.967C32.4962 233.583 32.4065 233.198 32.3286 232.813L32.2946 232.822L29.8653 223.658L32.8015 222.88C35.802 212.458 46.3535 202.941 60.5612 199.174C74.769 195.408 88.6494 198.448 96.4187 206.015L99.3551 205.237L101.784 214.4L101.75 214.409C101.873 214.783 101.986 215.161 102.088 215.545Z"/>
</mask>
<path fill-rule="evenodd" clip-rule="evenodd" d="M102.088 215.545C105.833 229.673 93.3136 245.25 74.1245 250.337C54.9354 255.424 36.3434 248.095 32.598 233.967C32.4962 233.583 32.4065 233.198 32.3286 232.813L32.2946 232.822L29.8653 223.658L32.8015 222.88C35.802 212.458 46.3535 202.941 60.5612 199.174C74.769 195.408 88.6494 198.448 96.4187 206.015L99.3551 205.237L101.784 214.4L101.75 214.409C101.873 214.783 101.986 215.161 102.088 215.545Z" fill="#90C008"/>
<path d="M74.1245 250.337L74.2363 250.759L74.1245 250.337ZM102.088 215.545L102.51 215.433L102.51 215.433L102.088 215.545ZM32.598 233.967L32.1761 234.079L32.1761 234.079L32.598 233.967ZM32.3286 232.813L32.7564 232.726L32.6646 232.272L32.2168 232.391L32.3286 232.813ZM32.2946 232.822L31.8727 232.934L31.9846 233.355L32.4064 233.244L32.2946 232.822ZM29.8653 223.658L29.7535 223.236L29.3317 223.348L29.4435 223.77L29.8653 223.658ZM32.8015 222.88L32.9133 223.302L33.1524 223.238L33.2208 223.001L32.8015 222.88ZM60.5612 199.174L60.4494 198.753L60.5612 199.174ZM96.4187 206.015L96.1143 206.328L96.2915 206.5L96.5306 206.437L96.4187 206.015ZM99.3551 205.237L99.7769 205.125L99.6651 204.703L99.2433 204.815L99.3551 205.237ZM101.784 214.4L101.896 214.822L102.318 214.71L102.206 214.288L101.784 214.4ZM101.75 214.409L101.638 213.987L101.19 214.106L101.336 214.546L101.75 214.409ZM74.2363 250.759C83.9115 248.194 91.9222 242.981 97.0467 236.605C102.171 230.229 104.426 222.663 102.51 215.433L101.666 215.657C103.495 222.555 101.363 229.842 96.3664 236.058C91.3702 242.275 83.5266 247.393 74.0127 249.915L74.2363 250.759ZM32.1761 234.079C34.0928 241.309 39.8 246.764 47.4098 249.764C55.0198 252.764 64.5611 253.324 74.2363 250.759L74.0127 249.915C64.4988 252.438 55.1495 251.877 47.7299 248.952C40.3101 246.027 34.8485 240.753 33.0198 233.855L32.1761 234.079ZM31.9009 232.899C31.9805 233.293 32.0722 233.686 32.1761 234.079L33.0198 233.855C32.9203 233.48 32.8326 233.103 32.7564 232.726L31.9009 232.899ZM32.2168 232.391L32.1828 232.4L32.4064 233.244L32.4404 233.235L32.2168 232.391ZM32.7164 232.71L30.2871 223.546L29.4435 223.77L31.8727 232.934L32.7164 232.71ZM29.9771 224.08L32.9133 223.302L32.6896 222.458L29.7535 223.236L29.9771 224.08ZM60.4494 198.753C46.1344 202.547 35.4356 212.153 32.3821 222.759L33.2208 223.001C36.1683 212.763 46.5725 203.334 60.673 199.596L60.4494 198.753ZM96.7232 205.702C88.8166 198.002 74.7643 194.958 60.4494 198.753L60.673 199.596C74.7736 195.858 88.4823 198.895 96.1143 206.328L96.7232 205.702ZM96.5306 206.437L99.4669 205.658L99.2433 204.815L96.3069 205.593L96.5306 206.437ZM98.9333 205.348L101.363 214.512L102.206 214.288L99.7769 205.125L98.9333 205.348ZM101.673 213.978L101.638 213.987L101.862 214.831L101.896 214.822L101.673 213.978ZM102.51 215.433C102.406 215.041 102.291 214.654 102.164 214.272L101.336 214.546C101.456 214.911 101.566 215.282 101.666 215.657L102.51 215.433Z" fill="black" mask="url(#path-19-inside-5_8082_29384)"/>
<mask id="path-21-inside-6_8082_29384" fill="white">
<path fill-rule="evenodd" clip-rule="evenodd" d="M60.2932 199.246C46.221 203.061 35.7834 212.523 32.8017 222.88L29.8655 223.658L32.2948 232.821L32.3288 232.812C32.4067 233.198 32.4964 233.583 32.5981 233.966C36.326 248.029 54.7624 255.356 73.8562 250.407L60.2932 199.246Z"/>
</mask>
<path fill-rule="evenodd" clip-rule="evenodd" d="M60.2932 199.246C46.221 203.061 35.7834 212.523 32.8017 222.88L29.8655 223.658L32.2948 232.821L32.3288 232.812C32.4067 233.198 32.4964 233.583 32.5981 233.966C36.326 248.029 54.7624 255.356 73.8562 250.407L60.2932 199.246Z" fill="#719806"/>
<path d="M32.8017 222.88L32.9135 223.301L33.1526 223.238L33.221 223L32.8017 222.88ZM60.2932 199.246L60.7151 199.134L60.6026 198.71L60.1791 198.825L60.2932 199.246ZM29.8655 223.658L29.7537 223.236L29.3319 223.348L29.4437 223.77L29.8655 223.658ZM32.2948 232.821L31.873 232.933L31.9848 233.355L32.4066 233.243L32.2948 232.821ZM32.3288 232.812L32.7565 232.726L32.6647 232.272L32.2169 232.391L32.3288 232.812ZM32.5981 233.966L32.1763 234.078L32.5981 233.966ZM73.8562 250.407L73.9656 250.83L74.3904 250.72L74.278 250.296L73.8562 250.407ZM33.221 223C36.15 212.827 46.4417 203.453 60.4074 199.667L60.1791 198.825C46.0004 202.668 35.4167 212.22 32.3823 222.759L33.221 223ZM29.9774 224.08L32.9135 223.301L32.6899 222.458L29.7537 223.236L29.9774 224.08ZM32.7166 232.71L30.2874 223.546L29.4437 223.77L31.873 232.933L32.7166 232.71ZM32.2169 232.391L32.183 232.4L32.4066 233.243L32.4406 233.234L32.2169 232.391ZM33.0199 233.855C32.9205 233.479 32.8327 233.103 32.7565 232.726L31.901 232.899C31.9806 233.293 32.0723 233.686 32.1763 234.078L33.0199 233.855ZM73.7467 249.985C64.2802 252.438 54.9934 251.844 47.6264 248.91C40.2593 245.977 34.8401 240.721 33.0199 233.855L32.1763 234.078C34.084 241.275 39.747 246.713 47.3035 249.721C54.8602 252.73 64.3384 253.325 73.9656 250.83L73.7467 249.985ZM74.278 250.296L60.7151 199.134L59.8714 199.358L73.4343 250.519L74.278 250.296Z" fill="black" mask="url(#path-21-inside-6_8082_29384)"/>
<path d="M99.0422 204.911C100.893 211.892 98.7302 219.249 93.7018 225.505C88.6735 231.761 80.7881 236.904 71.2339 239.437C61.6797 241.969 52.2824 241.409 44.8152 238.465C37.3479 235.521 31.8249 230.202 29.9742 223.221C28.1235 216.24 30.2862 208.883 35.3146 202.627C40.3429 196.371 48.2282 191.228 57.7825 188.696C67.3367 186.163 76.7339 186.723 84.2012 189.667C91.6685 192.611 97.1915 197.93 99.0422 204.911Z" fill="#D5FB6B" stroke="black" stroke-width="0.436399"/>
<path d="M94.8198 204.396C96.3334 210.105 94.3438 216.19 89.8552 221.419C85.3673 226.647 78.3944 231 69.9968 233.226C61.5993 235.453 53.3854 235.125 46.8971 232.807C40.4076 230.488 35.6653 226.189 34.1517 220.479C32.6381 214.77 34.6276 208.685 39.1163 203.456C43.6041 198.229 50.577 193.875 58.9746 191.649C67.3722 189.423 75.586 189.75 82.0744 192.068C88.5639 194.387 93.3062 198.687 94.8198 204.396Z" fill="#A2D611" stroke="black" stroke-width="0.436399"/>
<path d="M95.6284 207.45C97.142 213.159 95.1525 219.244 90.6638 224.473C86.176 229.701 79.2031 234.054 70.8055 236.28C62.4079 238.506 54.1941 238.179 47.7057 235.861C41.2162 233.542 36.4739 229.243 34.9603 223.533C33.4467 217.824 35.4363 211.739 39.9249 206.51C44.4128 201.282 51.3856 196.929 59.7832 194.703C68.1808 192.477 76.3946 192.804 82.883 195.122C89.3725 197.441 94.1148 201.741 95.6284 207.45Z" fill="#BFFF0B" stroke="black" stroke-width="0.436399"/>
<path fill-rule="evenodd" clip-rule="evenodd" d="M57.5845 218.772C57.6049 218.688 57.5909 218.599 57.5457 218.525C57.5004 218.451 57.4276 218.398 57.3432 218.377L49.4761 216.486C49.3493 216.456 49.2164 216.504 49.1382 216.608C49.06 216.713 49.0514 216.854 49.1163 216.967L54.9716 227.171C55.0382 227.287 55.1688 227.351 55.3012 227.332C55.4336 227.313 55.5412 227.215 55.5727 227.085L57.5845 218.772Z" fill="#405701"/>
<path fill-rule="evenodd" clip-rule="evenodd" d="M70.7533 199.545C70.8465 199.634 70.8791 199.769 70.8367 199.89L69.7716 202.938L72.0675 202.302C72.1889 202.268 72.3188 202.307 72.4014 202.402C72.484 202.498 72.5046 202.632 72.4544 202.747L71.114 205.829L73.8953 205.412C74.0182 205.393 74.1409 205.446 74.2119 205.548C74.283 205.65 74.2901 205.783 74.2302 205.892L72.8688 208.371L75.5547 208.243C75.6784 208.237 75.7947 208.301 75.8553 208.409C75.9159 208.517 75.9102 208.65 75.8407 208.753L74.3498 210.951L77.2112 211.077C77.3355 211.083 77.4459 211.158 77.496 211.272C77.546 211.386 77.527 211.519 77.4469 211.614L75.6572 213.743L79.0296 214.198C79.1548 214.215 79.2591 214.302 79.2974 214.423C79.3356 214.543 79.3009 214.675 79.2083 214.761L77.4804 216.366L80.6793 217.036C80.8057 217.063 80.9047 217.161 80.9318 217.288C80.959 217.414 80.9092 217.544 80.8049 217.62L78.9836 218.949L82.3261 219.876C82.4538 219.911 82.5475 220.02 82.5633 220.152C82.579 220.284 82.5137 220.412 82.398 220.476L58.9924 233.53C58.8776 233.594 58.7356 233.583 58.632 233.502C58.5284 233.421 58.4834 233.286 58.5178 233.159L63.3558 215.293L45.4089 210.316C45.2818 210.281 45.1884 210.173 45.172 210.042C45.1555 209.911 45.2192 209.784 45.3335 209.718L68.5765 196.381C68.6911 196.315 68.8341 196.325 68.9388 196.406C69.0434 196.486 69.0891 196.622 69.0546 196.75L68.0556 200.439L70.4047 199.48C70.5237 199.431 70.6601 199.457 70.7533 199.545ZM67.2943 200.75L68.2175 197.34L49.9038 207.849L67.2943 200.75ZM55.412 212.412L63.5267 214.662L63.6678 214.141L55.412 212.412ZM64.3086 214.275L64.1565 214.837L64.8529 215.03L65.0616 214.433L64.3086 214.275ZM65.279 213.811L64.4797 213.643L64.6757 212.92L65.5492 213.038L65.279 213.811ZM65.7067 214.568L65.4841 215.205L66.2327 215.413L66.5254 214.74L65.7067 214.568ZM66.7916 214.128L65.9242 213.946L66.2104 213.127L67.1705 213.257L66.7916 214.128ZM67.1787 214.877L66.8687 215.589L67.9876 215.9L68.4081 215.134L67.1787 214.877ZM68.737 214.535L67.4449 214.265L67.8437 213.348L69.2827 213.542L68.737 214.535ZM69.0769 215.274L68.6347 216.079L69.8525 216.417L70.4346 215.558L69.0769 215.274ZM70.8312 214.974L69.4058 214.675L69.9769 213.635L71.5912 213.853L70.8312 214.974ZM71.1262 215.703L70.5172 216.601L72.044 217.024L72.851 216.065L71.1262 215.703ZM73.3284 215.497L71.5228 215.119L72.3147 213.951L74.3923 214.231L73.3284 215.497ZM73.5771 216.217L72.7364 217.216L74.9457 217.829L76.1103 216.747L73.5771 216.217ZM76.6968 216.202L74.0545 215.649L75.1592 214.335L78.2567 214.753L76.6968 216.202ZM76.8939 216.911L75.6852 218.034L78.1801 218.726L79.8259 217.525L76.8939 216.911ZM77.5064 219.218L75.123 218.557L63.0962 229.73L77.5064 219.218ZM62.4977 229.394L74.3835 218.351L72.274 217.766L62.4977 229.394ZM71.5815 217.574L70.13 217.172L62.6586 228.187L71.5815 217.574ZM62.4748 227.293L69.4653 216.988L68.3114 216.668L62.4748 227.293ZM67.6643 216.488L66.6054 216.194L61.9637 226.866L67.6643 216.488ZM62.0529 225.022L65.9694 216.018L65.268 215.824L62.0529 225.022ZM64.6368 215.649L63.9856 215.468L61.528 224.543L64.6368 215.649ZM63.3659 230.342L81.3845 220.293L78.31 219.44L63.3659 230.342ZM74.8903 213.639L76.5199 211.701L73.919 211.586L72.7245 213.347L74.8903 213.639ZM72.001 213.249L73.1522 211.552L71.1695 211.464L70.3142 213.021L72.001 213.249ZM69.6199 212.928L70.4415 211.432L68.7102 211.355L68.1147 212.725L69.6199 212.928ZM67.4414 212.634L68.0109 211.325L66.8582 211.274L66.4305 212.497L67.4414 212.634ZM65.7693 212.408L66.1764 211.243L65.1421 211.198L64.848 212.284L65.7693 212.408ZM64.1947 212.195L64.4729 211.168L52.7355 210.649L64.1947 212.195ZM52.619 209.989L64.648 210.522L64.9511 209.402L52.619 209.989ZM65.6371 209.369L65.3171 210.551L66.4016 210.599L66.8515 209.312L65.6371 209.369ZM67.0841 208.646L65.8166 208.707L66.2181 207.224L67.6566 207.008L67.0841 208.646ZM67.5556 209.278L67.0834 210.629L68.2901 210.683L68.9294 209.213L67.5556 209.278ZM69.2201 208.544L67.7882 208.613L68.3873 206.899L70.044 206.65L69.2201 208.544ZM69.6573 209.178L68.9894 210.714L70.7924 210.793L71.734 209.079L69.6573 209.178ZM72.103 208.407L69.9479 208.51L70.8065 206.536L73.3397 206.156L72.103 208.407ZM72.4997 209.043L71.5204 210.826L73.5831 210.917L74.9329 208.927L72.4997 209.043ZM70.3516 205.943L71.5818 203.115L69.5091 203.689L68.631 206.201L70.3516 205.943ZM67.9004 206.311L68.7425 203.901L66.9862 204.388L66.4047 206.535L67.9004 206.311ZM65.6989 206.641L66.2542 204.59L50.7673 208.88L65.6989 206.641ZM54.4083 211.534L63.8389 213.509L64.0224 212.832L54.4083 211.534ZM51.9207 209.368L65.1307 208.739L65.5123 207.33L51.9207 209.368ZM50.7699 208.201L67.0793 201.543L66.4527 203.857L50.7699 208.201ZM67.1848 203.654L67.8406 201.232L69.9805 200.359L69.005 203.15L67.1848 203.654Z" fill="#405701"/>
</g>
<g opacity="0.5" filter="url(#filter1_f_8082_29384)">
<mask id="path-28-inside-7_8082_29384" fill="white">
<path fill-rule="evenodd" clip-rule="evenodd" d="M504.94 35.7308C507.487 45.338 498.973 55.9304 485.925 59.3896C472.876 62.8488 460.234 57.8649 457.687 48.2576C457.617 47.9968 457.557 47.7353 457.504 47.4732L457.48 47.4794L455.828 41.2482L457.825 40.7189C459.865 33.6318 467.04 27.16 476.702 24.5987C486.363 22.0375 495.802 24.1049 501.085 29.2506L503.082 28.7213L504.734 34.9525L504.71 34.9586C504.794 35.2126 504.871 35.47 504.94 35.7308Z"/>
</mask>
<path fill-rule="evenodd" clip-rule="evenodd" d="M504.94 35.7308C507.487 45.338 498.973 55.9304 485.925 59.3896C472.876 62.8488 460.234 57.8649 457.687 48.2576C457.617 47.9968 457.557 47.7353 457.504 47.4732L457.48 47.4794L455.828 41.2482L457.825 40.7189C459.865 33.6318 467.04 27.16 476.702 24.5987C486.363 22.0375 495.802 24.1049 501.085 29.2506L503.082 28.7213L504.734 34.9525L504.71 34.9586C504.794 35.2126 504.871 35.47 504.94 35.7308Z" fill="#90C008"/>
<path d="M485.925 59.3896L485.849 59.1028L485.925 59.3896ZM504.94 35.7308L505.227 35.6547L505.227 35.6547L504.94 35.7308ZM457.687 48.2576L457.973 48.1816L457.973 48.1816L457.687 48.2576ZM457.504 47.4732L457.794 47.4144L457.732 47.1056L457.427 47.1864L457.504 47.4732ZM457.48 47.4794L457.194 47.5554L457.27 47.8423L457.556 47.7662L457.48 47.4794ZM455.828 41.2482L455.752 40.9613L455.466 41.0374L455.542 41.3242L455.828 41.2482ZM457.825 40.7189L457.901 41.0057L458.064 40.9626L458.11 40.801L457.825 40.7189ZM476.702 24.5987L476.626 24.3119L476.702 24.5987ZM501.085 29.2506L500.878 29.4631L500.999 29.5805L501.161 29.5374L501.085 29.2506ZM503.082 28.7213L503.369 28.6452L503.293 28.3584L503.006 28.4344L503.082 28.7213ZM504.734 34.9525L504.81 35.2393L505.097 35.1633L505.02 34.8764L504.734 34.9525ZM504.71 34.9586L504.634 34.6718L504.33 34.7525L504.429 35.0517L504.71 34.9586ZM486.001 59.6765C492.58 57.9323 498.027 54.3873 501.512 50.0516C504.997 45.7161 506.53 40.5712 505.227 35.6547L504.653 35.8068C505.897 40.4976 504.447 45.4525 501.049 49.6798C497.652 53.907 492.318 57.3877 485.849 59.1028L486.001 59.6765ZM457.4 48.3337C458.703 53.2501 462.584 56.9597 467.759 58.9996C472.934 61.0396 479.422 61.4206 486.001 59.6765L485.849 59.1028C479.379 60.8179 473.022 60.4365 467.976 58.4475C462.931 56.4584 459.217 52.8724 457.973 48.1816L457.4 48.3337ZM457.213 47.532C457.267 47.7999 457.329 48.0672 457.4 48.3337L457.973 48.1816C457.906 47.9265 457.846 47.6707 457.794 47.4144L457.213 47.532ZM457.427 47.1864L457.404 47.1925L457.556 47.7662L457.58 47.7601L457.427 47.1864ZM457.767 47.4033L456.115 41.1721L455.542 41.3242L457.194 47.5554L457.767 47.4033ZM455.904 41.535L457.901 41.0057L457.749 40.432L455.752 40.9613L455.904 41.535ZM476.626 24.3119C466.891 26.8925 459.616 33.4245 457.54 40.6368L458.11 40.801C460.114 33.8392 467.189 27.4275 476.778 24.8856L476.626 24.3119ZM501.292 29.038C495.916 23.8014 486.36 21.7313 476.626 24.3119L476.778 24.8856C486.366 22.3437 495.688 24.4085 500.878 29.4631L501.292 29.038ZM501.161 29.5374L503.158 29.0081L503.006 28.4344L501.009 28.9637L501.161 29.5374ZM502.795 28.7973L504.447 35.0285L505.02 34.8764L503.369 28.6452L502.795 28.7973ZM504.658 34.6656L504.634 34.6718L504.786 35.2455L504.81 35.2393L504.658 34.6656ZM505.227 35.6547C505.156 35.3882 505.078 35.1251 504.992 34.8656L504.429 35.0517C504.511 35.3 504.585 35.5517 504.653 35.8068L505.227 35.6547Z" fill="black" mask="url(#path-28-inside-7_8082_29384)"/>
<mask id="path-30-inside-8_8082_29384" fill="white">
<path fill-rule="evenodd" clip-rule="evenodd" d="M476.52 24.6472C466.95 27.2411 459.853 33.6759 457.825 40.7182L455.829 41.2475L457.481 47.4787L457.504 47.4725C457.557 47.7347 457.618 47.9963 457.687 48.2572C460.222 57.8196 472.759 62.8018 485.742 59.4371L476.52 24.6472Z"/>
</mask>
<path fill-rule="evenodd" clip-rule="evenodd" d="M476.52 24.6472C466.95 27.2411 459.853 33.6759 457.825 40.7182L455.829 41.2475L457.481 47.4787L457.504 47.4725C457.557 47.7347 457.618 47.9963 457.687 48.2572C460.222 57.8196 472.759 62.8018 485.742 59.4371L476.52 24.6472Z" fill="#719806"/>
<path d="M457.825 40.7182L457.901 41.005L458.064 40.9619L458.11 40.8003L457.825 40.7182ZM476.52 24.6472L476.806 24.5711L476.73 24.2827L476.442 24.3608L476.52 24.6472ZM455.829 41.2475L455.753 40.9606L455.466 41.0367L455.542 41.3235L455.829 41.2475ZM457.481 47.4787L457.194 47.5547L457.27 47.8416L457.557 47.7655L457.481 47.4787ZM457.504 47.4725L457.794 47.4138L457.732 47.105L457.428 47.1857L457.504 47.4725ZM457.687 48.2572L457.4 48.3333L457.4 48.3333L457.687 48.2572ZM485.742 59.4371L485.817 59.7243L486.106 59.6495L486.029 59.361L485.742 59.4371ZM458.11 40.8003C460.102 33.8825 467.1 27.5079 476.597 24.9336L476.442 24.3608C466.8 26.9743 459.603 33.4693 457.54 40.6361L458.11 40.8003ZM455.905 41.5343L457.901 41.005L457.749 40.4313L455.753 40.9606L455.905 41.5343ZM457.767 47.4026L456.115 41.1714L455.542 41.3235L457.194 47.5547L457.767 47.4026ZM457.428 47.1857L457.404 47.1918L457.557 47.7655L457.58 47.7594L457.428 47.1857ZM457.974 48.1812C457.906 47.926 457.846 47.6702 457.794 47.4138L457.213 47.5313C457.267 47.7993 457.329 48.0666 457.4 48.3333L457.974 48.1812ZM485.668 59.1498C479.231 60.818 472.916 60.4137 467.906 58.4191C462.896 56.4245 459.211 52.8501 457.974 48.1812L457.4 48.3333C458.697 53.2267 462.548 56.9246 467.687 58.9705C472.825 61.0165 479.27 61.4209 485.817 59.7243L485.668 59.1498ZM486.029 59.361L476.806 24.5711L476.233 24.7232L485.456 59.5131L486.029 59.361Z" fill="black" mask="url(#path-30-inside-8_8082_29384)"/>
<path d="M502.869 28.4994C504.127 33.2466 502.657 38.249 499.238 42.5033C495.818 46.7576 490.456 50.2545 483.959 51.9768C477.462 53.6991 471.072 53.3178 465.994 51.3161C460.917 49.3143 457.161 45.6974 455.903 40.9502C454.644 36.203 456.115 31.2006 459.534 26.9462C462.953 22.6919 468.315 19.1951 474.812 17.4728C481.309 15.7504 487.699 16.1317 492.777 18.1335C497.855 20.1352 501.611 23.7522 502.869 28.4994Z" fill="#D5FB6B" stroke="black" stroke-width="0.296753"/>
<path d="M499.998 28.1495C501.027 32.0319 499.674 36.1693 496.622 39.7249C493.57 43.28 488.829 46.2404 483.118 47.7542C477.408 49.268 471.822 49.0453 467.41 47.469C462.997 45.8923 459.773 42.9685 458.743 39.0861C457.714 35.2036 459.067 31.0662 462.119 27.5106C465.171 23.9555 469.913 20.9952 475.623 19.4813C481.333 17.9675 486.919 18.1902 491.331 19.7666C495.744 21.3432 498.969 24.267 499.998 28.1495Z" fill="#A2D611" stroke="black" stroke-width="0.296753"/>
<path d="M500.548 30.2261C501.577 34.1086 500.224 38.2459 497.172 41.8016C494.12 45.3566 489.378 48.317 483.668 49.8308C477.958 51.3447 472.372 51.122 467.96 49.5456C463.547 47.969 460.322 45.0452 459.293 41.1627C458.264 37.2803 459.617 33.1429 462.669 29.5872C465.721 26.0322 470.462 23.0718 476.173 21.558C481.883 20.0442 487.469 20.2668 491.881 21.8432C496.294 23.4199 499.518 26.3437 500.548 30.2261Z" fill="#BFFF0B" stroke="black" stroke-width="0.296753"/>
<path fill-rule="evenodd" clip-rule="evenodd" d="M474.678 37.9253C474.691 37.868 474.682 37.8074 474.651 37.7571C474.62 37.7068 474.571 37.6707 474.514 37.657L469.164 36.3711C469.078 36.3503 468.987 36.3829 468.934 36.4539C468.881 36.5249 468.875 36.6208 468.919 36.6977L472.901 43.6366C472.946 43.7155 473.035 43.7589 473.125 43.746C473.215 43.7332 473.288 43.6667 473.31 43.5783L474.678 37.9253Z" fill="#405701"/>
<path fill-rule="evenodd" clip-rule="evenodd" d="M483.632 24.8508C483.696 24.911 483.718 25.0028 483.689 25.0853L482.965 27.1577L484.526 26.7253C484.609 26.7024 484.697 26.729 484.753 26.7937C484.809 26.8583 484.823 26.9495 484.789 27.0281L483.878 29.1235L485.769 28.8399C485.853 28.8273 485.936 28.8633 485.984 28.9326C486.033 29.0019 486.037 29.0926 485.997 29.1666L485.071 30.8521L486.897 30.7651C486.982 30.7611 487.061 30.805 487.102 30.8784C487.143 30.9518 487.139 31.0422 487.092 31.1119L486.078 32.6065L488.024 32.6926C488.108 32.6963 488.183 32.7478 488.217 32.8252C488.252 32.9027 488.239 32.9928 488.184 33.0576L486.967 34.505L489.26 34.8146C489.346 34.8261 489.416 34.8857 489.442 34.9676C489.468 35.0495 489.445 35.1391 489.382 35.1976L488.207 36.2892L490.382 36.7448C490.468 36.7628 490.535 36.8297 490.554 36.9155C490.572 37.0014 490.539 37.0901 490.468 37.1418L489.229 38.0453L491.502 38.6756C491.589 38.6997 491.653 38.7738 491.663 38.8633C491.674 38.9528 491.63 39.0399 491.551 39.0838L475.635 47.9603C475.557 48.0038 475.46 47.9964 475.39 47.9413C475.32 47.8863 475.289 47.7944 475.312 47.7081L478.602 35.5595L466.398 32.1751C466.312 32.1511 466.248 32.0776 466.237 31.9887C466.226 31.8998 466.269 31.8128 466.347 31.7682L482.152 22.699C482.23 22.6542 482.327 22.6609 482.399 22.7158C482.47 22.7707 482.501 22.8631 482.477 22.9498L481.798 25.4583L483.395 24.8062C483.476 24.7732 483.569 24.7906 483.632 24.8508ZM481.28 25.6697L481.908 23.3515L469.455 30.4974L481.28 25.6697ZM473.2 33.6002L478.718 35.1305L478.814 34.776L473.2 33.6002ZM479.25 34.8673L479.147 35.2492L479.62 35.3806L479.762 34.9745L479.25 34.8673ZM479.91 34.5514L479.366 34.4376L479.5 33.9456L480.094 34.0258L479.91 34.5514ZM480.201 35.0664L480.049 35.4996L480.558 35.6408L480.758 35.183L480.201 35.0664ZM480.939 34.7669L480.349 34.6433L480.543 34.0864L481.196 34.1746L480.939 34.7669ZM481.202 35.2761L480.991 35.7607L481.752 35.9717L482.038 35.4512L481.202 35.2761ZM482.261 35.0439L481.383 34.8599L481.654 34.2364L482.632 34.3684L482.261 35.0439ZM482.492 35.5464L482.192 36.0937L483.02 36.3234L483.416 35.7398L482.492 35.5464ZM483.685 35.3422L482.716 35.1392L483.105 34.4322L484.202 34.5803L483.685 35.3422ZM483.886 35.8383L483.472 36.4487L484.51 36.7366L485.059 36.0839L483.886 35.8383ZM485.384 35.6978L484.156 35.4407L484.694 34.6467L486.107 34.8374L485.384 35.6978ZM485.553 36.1873L484.981 36.8672L486.483 37.2838L487.275 36.5481L485.553 36.1873ZM487.674 36.1776L485.877 35.8012L486.628 34.9078L488.735 35.1921L487.674 36.1776ZM487.808 36.6597L486.986 37.4233L488.683 37.8938L489.802 37.0773L487.808 36.6597ZM488.225 38.2279L486.604 37.7785L478.426 45.3764L488.225 38.2279ZM478.019 45.1479L486.101 37.639L484.667 37.2412L478.019 45.1479ZM484.196 37.1106L483.209 36.8369L478.128 44.3271L484.196 37.1106ZM478.003 43.7196L482.757 36.7116L481.972 36.494L478.003 43.7196ZM481.532 36.3719L480.812 36.1723L477.656 43.4291L481.532 36.3719ZM477.716 42.1753L480.379 36.0523L479.902 35.9201L477.716 42.1753ZM479.473 35.801L479.03 35.6782L477.359 41.8496L479.473 35.801ZM478.609 45.7928L490.862 38.9593L488.771 38.3795L478.609 45.7928ZM486.446 34.4346L487.554 33.1167L485.785 33.0384L484.973 34.2359L486.446 34.4346ZM484.481 34.1695L485.264 33.0154L483.916 32.9557L483.334 34.0146L484.481 34.1695ZM482.862 33.9509L483.42 32.9338L482.243 32.8817L481.838 33.8127L482.862 33.9509ZM481.38 33.751L481.768 32.8607L480.984 32.826L480.693 33.6582L481.38 33.751ZM480.243 33.5975L480.52 32.8055L479.817 32.7744L479.617 33.5129L480.243 33.5975ZM479.173 33.453L479.362 32.7543L471.38 32.4012L479.173 33.453ZM471.301 31.9528L479.481 32.3146L479.687 31.5534L471.301 31.9528ZM480.153 31.5312L479.936 32.3348L480.673 32.3674L480.979 31.4919L480.153 31.5312ZM481.137 31.0394L480.276 31.0805L480.549 30.0723L481.527 29.9256L481.137 31.0394ZM481.458 31.4691L481.137 32.3879L481.957 32.4242L482.392 31.4246L481.458 31.4691ZM482.59 30.9703L481.616 31.0166L482.024 29.851L483.15 29.6821L482.59 30.9703ZM482.887 31.4011L482.433 32.4452L483.659 32.4995L484.299 31.3338L482.887 31.4011ZM484.55 30.8769L483.085 30.9467L483.669 29.6043L485.391 29.346L484.55 30.8769ZM484.82 31.309L484.154 32.5214L485.557 32.5834L486.475 31.2302L484.82 31.309ZM483.359 29.2013L484.196 27.2779L482.786 27.6684L482.189 29.3768L483.359 29.2013ZM481.692 29.4513L482.265 27.8127L481.071 28.1436L480.675 29.6038L481.692 29.4513ZM480.195 29.6758L480.573 28.2815L470.042 31.1986L480.195 29.6758ZM472.518 33.0032L478.931 34.3463L479.055 33.8856L472.518 33.0032ZM470.826 31.5304L479.809 31.1027L480.069 30.1443L470.826 31.5304ZM470.044 30.737L481.134 26.2094L480.708 27.7829L470.044 30.737ZM481.206 27.645L481.652 25.9981L483.107 25.404L482.444 27.3021L481.206 27.645Z" fill="#405701"/>
</g>
<defs>
<filter id="filter0_f_8082_29384" x="25.101" y="182.87" width="81.6491" height="73.0828" filterUnits="userSpaceOnUse" color-interpolation-filters="sRGB">
<feFlood flood-opacity="0" result="BackgroundImageFix"/>
<feBlend mode="normal" in="SourceGraphic" in2="BackgroundImageFix" result="shape"/>
<feGaussianBlur stdDeviation="2" result="effect1_foregroundBlur_8082_29384"/>
</filter>
<filter id="filter1_f_8082_29384" x="451.309" y="12.231" width="58.0815" height="52.2568" filterUnits="userSpaceOnUse" color-interpolation-filters="sRGB">
<feFlood flood-opacity="0" result="BackgroundImageFix"/>
<feBlend mode="normal" in="SourceGraphic" in2="BackgroundImageFix" result="shape"/>
<feGaussianBlur stdDeviation="2" result="effect1_foregroundBlur_8082_29384"/>
</filter>
</defs>
</svg>
